# xmcd
#
# Track frame offsets:
# 150
# 22044
# 43597
# 58495
# 80960
# 101057
# 116700
# 139352
# 157147
# 181740
# 202657
# 220562
# 235100
# 251342
# 271215
# 284967
#
# Disc length: 4108 seconds
#
#
# Revision: 2
# Processed by: cddbd v1.5.2PL0 Copyright (c) Steve Scherf et al.
# Submitted via: FreeRIP 2.96 
#
DISCID=f4100a10
DTITLE=Pamplin Music - Dove Awards 2000
DYEAR=2000
DGENRE=Contemporary Christian
TTITLE0=Consume Me - DC Talk
TTITLE1=Can't Live A Day - Avalon
TTITLE2=Be Still And Know - Steven Curtis Chapman
TTITLE3=God So Loved - Jaci Velasquez
TTITLE4=I've Always Loved You - Third Day
TTITLE5=Free - Ginny Owens
TTITLE6=The Only Thing I Need - 4Him w/John Anderson
TTITLE7=Jesus, King Of Angels - Fernando Ortega
TTITLE8=Forever On And On - Point Of Grace
TTITLE9=A Different Road - Kathy Troccoli
TTITLE10=You Are God - The Katinas
TTITLE11=Choose Life - Big Tent Revival
TTITLE12=Make Us One - Cindy Morgan
TTITLE13=The Power Of A Moment - Chris Rice
TTITLE14=I Want To Know You - Sonicflood
TTITLE15=(Bonus Cut)Home With A View - John Elefante
EXTD=The Best Of 2000 - Dove Award Nominees and Winners
EXTT0=
EXTT1=
EXTT2=
EXTT3=
EXTT4=
EXTT5=
EXTT6=
EXTT7=
EXTT8=
EXTT9=
EXTT10=
EXTT11=
EXTT12=
EXTT13=
EXTT14=
EXTT15=
PLAYORDER=
